<svg xmlns="http://www.w3.org/2000/svg" viewBox="0 0 400 420" fill="none" stroke="#0B1F3A" stroke-width="1.5">
  <path fill="#f1f5f9" d="M 25.9 193.6 L 25.9 395.1 L 47.9 394.1 L 65.8 396.0 L 86.0 392.2 L 105.1 389.6 L 121.8 389.6 L 136.2 388.3 L 145.7 380.6 L 155.3 367.8 L 164.8 347.3 L 176.7 312.6 L 188.7 283.1 L 205.4 261.3 L 226.8 239.5 L 250.7 216.4 L 277.0 193.3 L 300.8 175.4 L 324.7 160.0 L 348.6 145.9 L 374.8 136.9 L 374.8 171.5 L 358.1 226.7 L 334.2 278.0 L 304.4 325.4 L 268.6 358.8 L 226.8 372.9 L 179.1 379.3 L 131.4 387.0 L 83.7 393.4 L 25.9 395.1 L 25.9 370.3 L 31.2 312.6 L 38.3 254.9 L 45.5 210.0 L 57.4 165.1 L 74.1 129.2 L 95.6 101.0 L 121.8 77.9 L 152.9 59.9 L 188.7 59.9 L 229.2 88.1 L 265.0 120.2 L 298.4 133.0 L 334.2 136.9 L 374.8 136.9 Z"/>
</svg>
